<mxfile host="app.diagrams.net" agent="Mozilla/5.0 (Windows NT 10.0; Win64; x64) AppleWebKit/537.36 (KHTML, like Gecko) Chrome/132.0.0.0 Safari/537.36" version="26.0.11">
  <diagram name="Page-1" id="BquTjOVz-UIzZDVOCAqc">
    <mxGraphModel grid="1" page="1" gridSize="10" guides="1" tooltips="1" connect="1" arrows="1" fold="1" pageScale="1" pageWidth="850" pageHeight="1100" math="0" shadow="0">
      <root>
        <mxCell id="0" />
        <mxCell id="1" parent="0" />
        <mxCell id="_-1G271mIU7XEoSfgBSJ-105" value="" style="shape=process;whiteSpace=wrap;html=1;backgroundOutline=1;size=0.031746031746031744;gradientColor=none;strokeColor=default;" vertex="1" parent="1">
          <mxGeometry x="390" y="260" width="910" height="290" as="geometry" />
        </mxCell>
        <mxCell id="_-1G271mIU7XEoSfgBSJ-1" value="Authority Document" style="rounded=1;whiteSpace=wrap;html=1;labelBackgroundColor=none;textShadow=0;fontColor=#0000AD;" vertex="1" parent="1">
          <mxGeometry x="40" y="35" width="100" height="60" as="geometry" />
        </mxCell>
        <mxCell id="_-1G271mIU7XEoSfgBSJ-2" value="" style="endArrow=classic;html=1;rounded=0;exitX=0.5;exitY=1;exitDx=0;exitDy=0;entryX=0.433;entryY=-0.133;entryDx=0;entryDy=0;entryPerimeter=0;" edge="1" parent="1" target="_-1G271mIU7XEoSfgBSJ-3">
          <mxGeometry width="50" height="50" relative="1" as="geometry">
            <mxPoint x="80" y="99" as="sourcePoint" />
            <mxPoint x="80" y="139" as="targetPoint" />
          </mxGeometry>
        </mxCell>
        <mxCell id="_-1G271mIU7XEoSfgBSJ-25" style="edgeStyle=orthogonalEdgeStyle;rounded=0;orthogonalLoop=1;jettySize=auto;html=1;exitX=1;exitY=0.25;exitDx=0;exitDy=0;entryX=0;entryY=0.25;entryDx=0;entryDy=0;" edge="1" parent="1">
          <mxGeometry relative="1" as="geometry">
            <mxPoint x="130" y="244.5" as="sourcePoint" />
            <mxPoint x="320" y="244.5" as="targetPoint" />
          </mxGeometry>
        </mxCell>
        <mxCell id="_-1G271mIU7XEoSfgBSJ-3" value="Citations" style="rounded=1;whiteSpace=wrap;html=1;" vertex="1" parent="1">
          <mxGeometry x="40" y="230" width="90" height="30" as="geometry" />
        </mxCell>
        <mxCell id="_-1G271mIU7XEoSfgBSJ-9" style="edgeStyle=orthogonalEdgeStyle;rounded=0;orthogonalLoop=1;jettySize=auto;html=1;entryX=0.5;entryY=0;entryDx=0;entryDy=0;" edge="1" parent="1" source="_-1G271mIU7XEoSfgBSJ-4" target="_-1G271mIU7XEoSfgBSJ-10">
          <mxGeometry relative="1" as="geometry">
            <mxPoint x="365" y="140" as="targetPoint" />
          </mxGeometry>
        </mxCell>
        <mxCell id="_-1G271mIU7XEoSfgBSJ-125" style="edgeStyle=orthogonalEdgeStyle;rounded=0;orthogonalLoop=1;jettySize=auto;html=1;" edge="1" parent="1" source="_-1G271mIU7XEoSfgBSJ-4" target="_-1G271mIU7XEoSfgBSJ-126">
          <mxGeometry relative="1" as="geometry">
            <mxPoint x="440" as="targetPoint" />
          </mxGeometry>
        </mxCell>
        <mxCell id="_-1G271mIU7XEoSfgBSJ-128" style="edgeStyle=orthogonalEdgeStyle;rounded=0;orthogonalLoop=1;jettySize=auto;html=1;exitX=0.5;exitY=0;exitDx=0;exitDy=0;entryX=0.39;entryY=1.025;entryDx=0;entryDy=0;entryPerimeter=0;" edge="1" parent="1" source="_-1G271mIU7XEoSfgBSJ-4" target="_-1G271mIU7XEoSfgBSJ-127">
          <mxGeometry relative="1" as="geometry">
            <mxPoint x="440" y="-30" as="targetPoint" />
            <Array as="points">
              <mxPoint x="365" />
              <mxPoint x="441" />
              <mxPoint x="441" y="-39" />
            </Array>
          </mxGeometry>
        </mxCell>
        <mxCell id="_-1G271mIU7XEoSfgBSJ-4" value="Policy Document" style="rounded=1;whiteSpace=wrap;html=1;fontColor=#000099;" vertex="1" parent="1">
          <mxGeometry x="320" y="40" width="90" height="60" as="geometry" />
        </mxCell>
        <mxCell id="_-1G271mIU7XEoSfgBSJ-93" style="edgeStyle=orthogonalEdgeStyle;rounded=0;orthogonalLoop=1;jettySize=auto;html=1;dashed=1;entryX=0;entryY=0.75;entryDx=0;entryDy=0;exitX=0.622;exitY=1.133;exitDx=0;exitDy=0;exitPerimeter=0;" edge="1" parent="1" source="_-1G271mIU7XEoSfgBSJ-10" target="_-1G271mIU7XEoSfgBSJ-100">
          <mxGeometry relative="1" as="geometry">
            <mxPoint x="600" y="380" as="targetPoint" />
            <mxPoint x="360" y="290" as="sourcePoint" />
            <Array as="points">
              <mxPoint x="375" y="350" />
            </Array>
          </mxGeometry>
        </mxCell>
        <mxCell id="_-1G271mIU7XEoSfgBSJ-112" value="Associate" style="edgeLabel;html=1;align=center;verticalAlign=middle;resizable=0;points=[];" connectable="0" vertex="1" parent="_-1G271mIU7XEoSfgBSJ-93">
          <mxGeometry x="-0.5322" y="2" relative="1" as="geometry">
            <mxPoint as="offset" />
          </mxGeometry>
        </mxCell>
        <mxCell id="_-1G271mIU7XEoSfgBSJ-10" value="Control Objectives" style="rounded=1;whiteSpace=wrap;html=1;" vertex="1" parent="1">
          <mxGeometry x="320" y="230" width="90" height="30" as="geometry" />
        </mxCell>
        <mxCell id="_-1G271mIU7XEoSfgBSJ-15" value="&lt;span style=&quot;color: rgb(29, 29, 29); font-family: Lato, Gilroy, sans-serif; text-align: left; background-color: rgb(255, 255, 255);&quot;&gt;&lt;font&gt;Linked&lt;/font&gt;&lt;/span&gt;" style="text;html=1;align=center;verticalAlign=middle;whiteSpace=wrap;rounded=0;fontSize=12.5;fontStyle=4" vertex="1" parent="1">
          <mxGeometry x="150" y="210" width="100" height="50" as="geometry" />
        </mxCell>
        <mxCell id="_-1G271mIU7XEoSfgBSJ-16" value="&lt;div style=&quot;&quot;&gt;&lt;span style=&quot;font-family: Lato, Arial, sans-serif; background-color: rgb(209, 210, 238);&quot;&gt;&lt;font color=&quot;#009c00&quot; style=&quot;font-size: 9px;&quot;&gt;PCI DSS 3.0 Requirements&lt;/font&gt;&lt;/span&gt;&lt;/div&gt;" style="text;html=1;align=left;verticalAlign=middle;whiteSpace=wrap;rounded=0;labelBorderColor=none;labelBackgroundColor=none;" vertex="1" parent="1">
          <mxGeometry x="80" y="100" width="100" height="30" as="geometry" />
        </mxCell>
        <UserObject label="&lt;font style=&quot;font-size: 9px;&quot;&gt;PCI DSS Requirements ยง 9.2 Bullet 1&lt;/font&gt;" id="_-1G271mIU7XEoSfgBSJ-17">
          <mxCell style="text;whiteSpace=wrap;html=1;fontColor=#009C00;" vertex="1" parent="1">
            <mxGeometry x="10" y="260" width="100" height="30" as="geometry" />
          </mxCell>
        </UserObject>
        <mxCell id="_-1G271mIU7XEoSfgBSJ-18" value="Manage visitor identification inside the facility." style="text;whiteSpace=wrap;fontSize=9;fontColor=#009C00;" vertex="1" parent="1">
          <mxGeometry x="370" y="180" width="110" height="30" as="geometry" />
        </mxCell>
        <mxCell id="_-1G271mIU7XEoSfgBSJ-19" value="Environmental Control Management policy" style="text;whiteSpace=wrap;fontSize=9;fontColor=#009C00;" vertex="1" parent="1">
          <mxGeometry x="270" y="110" width="100" height="10" as="geometry" />
        </mxCell>
        <mxCell id="_-1G271mIU7XEoSfgBSJ-21" value="&lt;span style=&quot;color: rgb(29, 29, 29); font-family: Lato, Gilroy, sans-serif; text-align: left; background-color: rgb(255, 255, 255);&quot;&gt;External legislation &amp;amp; Regulations&lt;/span&gt;" style="ellipse;shape=cloud;whiteSpace=wrap;html=1;align=center;fontSize=10;" vertex="1" parent="1">
          <mxGeometry x="-40" y="-5" width="120" height="70" as="geometry" />
        </mxCell>
        <mxCell id="_-1G271mIU7XEoSfgBSJ-22" value="&lt;div style=&quot;&quot;&gt;&lt;span style=&quot;background-color: initial;&quot;&gt;&amp;nbsp; Internal Rules/&lt;/span&gt;&lt;span style=&quot;background-color: initial;&quot;&gt;Standards&lt;/span&gt;&lt;/div&gt;&lt;div&gt;&lt;div style=&quot;&quot;&gt;&lt;span style=&quot;line-height: 115%;&quot;&gt;&lt;font&gt;&lt;br&gt;&lt;/font&gt;&lt;/span&gt;&lt;/div&gt;&lt;/div&gt;" style="ellipse;shape=cloud;whiteSpace=wrap;html=1;align=center;fontSize=10;" vertex="1" parent="1">
          <mxGeometry x="240" y="13" width="110" height="65" as="geometry" />
        </mxCell>
        <mxCell id="_-1G271mIU7XEoSfgBSJ-28" value="1:M" style="text;html=1;align=center;verticalAlign=middle;resizable=0;points=[];autosize=1;strokeColor=none;fillColor=none;" vertex="1" parent="1">
          <mxGeometry x="360" y="130" width="40" height="30" as="geometry" />
        </mxCell>
        <mxCell id="_-1G271mIU7XEoSfgBSJ-30" value="M:M" style="text;html=1;align=center;verticalAlign=middle;resizable=0;points=[];autosize=1;strokeColor=none;fillColor=none;" vertex="1" parent="1">
          <mxGeometry x="175" y="250" width="50" height="30" as="geometry" />
        </mxCell>
        <mxCell id="_-1G271mIU7XEoSfgBSJ-38" value="Entity Scoping" style="swimlane;startSize=20;horizontal=1;containerType=tree;fontSize=11;whiteSpace=wrap;" vertex="1" parent="1">
          <mxGeometry x="620" y="-43.5" width="520" height="217" as="geometry">
            <mxRectangle x="620" y="-43.5" width="110" height="30" as="alternateBounds" />
          </mxGeometry>
        </mxCell>
        <mxCell id="_-1G271mIU7XEoSfgBSJ-39" value="" style="edgeStyle=elbowEdgeStyle;elbow=vertical;sourcePerimeterSpacing=0;targetPerimeterSpacing=0;startArrow=none;endArrow=none;rounded=0;curved=0;fontSize=11;" edge="1" parent="_-1G271mIU7XEoSfgBSJ-38">
          <mxGeometry relative="1" as="geometry">
            <mxPoint x="75" y="70" as="sourcePoint" />
            <mxPoint x="170" y="120" as="targetPoint" />
          </mxGeometry>
        </mxCell>
        <mxCell id="_-1G271mIU7XEoSfgBSJ-40" value="Entity Type" style="whiteSpace=wrap;html=1;treeFolding=1;treeMoving=1;newEdgeStyle={&quot;edgeStyle&quot;:&quot;elbowEdgeStyle&quot;,&quot;startArrow&quot;:&quot;none&quot;,&quot;endArrow&quot;:&quot;none&quot;};fontSize=11;" vertex="1" parent="_-1G271mIU7XEoSfgBSJ-38">
          <mxGeometry x="55" y="30" width="70" height="40" as="geometry" />
        </mxCell>
        <mxCell id="_-1G271mIU7XEoSfgBSJ-51" style="edgeStyle=elbowEdgeStyle;rounded=0;orthogonalLoop=1;jettySize=auto;html=1;startArrow=none;endArrow=none;entryX=0.5;entryY=1;entryDx=0;entryDy=0;exitX=0;exitY=0.5;exitDx=0;exitDy=0;fontSize=11;" edge="1" parent="_-1G271mIU7XEoSfgBSJ-38" source="_-1G271mIU7XEoSfgBSJ-41" target="_-1G271mIU7XEoSfgBSJ-40">
          <mxGeometry relative="1" as="geometry" />
        </mxCell>
        <mxCell id="_-1G271mIU7XEoSfgBSJ-53" style="edgeStyle=elbowEdgeStyle;rounded=0;orthogonalLoop=1;jettySize=auto;html=1;startArrow=none;endArrow=none;fontSize=11;" edge="1" parent="_-1G271mIU7XEoSfgBSJ-38" target="_-1G271mIU7XEoSfgBSJ-58">
          <mxGeometry relative="1" as="geometry">
            <mxPoint x="155" y="220" as="targetPoint" />
            <mxPoint x="154.5" y="150" as="sourcePoint" />
          </mxGeometry>
        </mxCell>
        <mxCell id="_-1G271mIU7XEoSfgBSJ-56" style="edgeStyle=elbowEdgeStyle;rounded=0;orthogonalLoop=1;jettySize=auto;html=1;startArrow=none;endArrow=none;exitX=0.5;exitY=0;exitDx=0;exitDy=0;entryX=0.75;entryY=1;entryDx=0;entryDy=0;fontSize=11;" edge="1" parent="_-1G271mIU7XEoSfgBSJ-38" source="_-1G271mIU7XEoSfgBSJ-41" target="_-1G271mIU7XEoSfgBSJ-42">
          <mxGeometry relative="1" as="geometry" />
        </mxCell>
        <mxCell id="_-1G271mIU7XEoSfgBSJ-57" style="edgeStyle=elbowEdgeStyle;rounded=0;orthogonalLoop=1;jettySize=auto;html=1;startArrow=none;endArrow=none;exitX=1;exitY=0.5;exitDx=0;exitDy=0;entryX=0.75;entryY=1;entryDx=0;entryDy=0;fontSize=11;" edge="1" parent="_-1G271mIU7XEoSfgBSJ-38" source="_-1G271mIU7XEoSfgBSJ-41" target="_-1G271mIU7XEoSfgBSJ-48">
          <mxGeometry relative="1" as="geometry" />
        </mxCell>
        <mxCell id="_-1G271mIU7XEoSfgBSJ-41" value="Entity" style="whiteSpace=wrap;html=1;treeFolding=1;treeMoving=1;newEdgeStyle={&quot;edgeStyle&quot;:&quot;elbowEdgeStyle&quot;,&quot;startArrow&quot;:&quot;none&quot;,&quot;endArrow&quot;:&quot;none&quot;};fontSize=11;" vertex="1" parent="_-1G271mIU7XEoSfgBSJ-38">
          <mxGeometry x="105" y="120" width="100" height="30" as="geometry" />
        </mxCell>
        <mxCell id="_-1G271mIU7XEoSfgBSJ-42" value="Entity Type" style="whiteSpace=wrap;html=1;treeFolding=1;treeMoving=1;newEdgeStyle={&quot;edgeStyle&quot;:&quot;elbowEdgeStyle&quot;,&quot;startArrow&quot;:&quot;none&quot;,&quot;endArrow&quot;:&quot;none&quot;};fontSize=11;" vertex="1" parent="_-1G271mIU7XEoSfgBSJ-38">
          <mxGeometry x="135" y="30" width="70" height="40" as="geometry" />
        </mxCell>
        <mxCell id="_-1G271mIU7XEoSfgBSJ-50" style="edgeStyle=elbowEdgeStyle;rounded=0;orthogonalLoop=1;jettySize=auto;html=1;startArrow=none;endArrow=none;fontSize=11;" edge="1" parent="_-1G271mIU7XEoSfgBSJ-38">
          <mxGeometry relative="1" as="geometry">
            <mxPoint x="165" y="95" as="targetPoint" />
            <mxPoint x="245" y="65" as="sourcePoint" />
            <Array as="points">
              <mxPoint x="245" y="95" />
            </Array>
          </mxGeometry>
        </mxCell>
        <mxCell id="_-1G271mIU7XEoSfgBSJ-48" value="Entity Type" style="whiteSpace=wrap;html=1;treeFolding=1;treeMoving=1;newEdgeStyle={&quot;edgeStyle&quot;:&quot;elbowEdgeStyle&quot;,&quot;startArrow&quot;:&quot;none&quot;,&quot;endArrow&quot;:&quot;none&quot;};fontSize=11;" vertex="1" parent="_-1G271mIU7XEoSfgBSJ-38">
          <mxGeometry x="225" y="30" width="70" height="40" as="geometry" />
        </mxCell>
        <mxCell id="_-1G271mIU7XEoSfgBSJ-49" style="edgeStyle=elbowEdgeStyle;rounded=0;orthogonalLoop=1;jettySize=auto;html=1;startArrow=none;endArrow=none;entryX=0.375;entryY=-0.075;entryDx=0;entryDy=0;entryPerimeter=0;fontSize=11;" edge="1" parent="_-1G271mIU7XEoSfgBSJ-38" source="_-1G271mIU7XEoSfgBSJ-42" target="_-1G271mIU7XEoSfgBSJ-41">
          <mxGeometry relative="1" as="geometry" />
        </mxCell>
        <mxCell id="_-1G271mIU7XEoSfgBSJ-59" style="edgeStyle=elbowEdgeStyle;rounded=0;orthogonalLoop=1;jettySize=auto;html=1;startArrow=none;endArrow=none;entryX=1;entryY=0.5;entryDx=0;entryDy=0;fontSize=11;" edge="1" parent="_-1G271mIU7XEoSfgBSJ-38" source="_-1G271mIU7XEoSfgBSJ-54" target="_-1G271mIU7XEoSfgBSJ-48">
          <mxGeometry relative="1" as="geometry">
            <mxPoint x="305" y="50" as="targetPoint" />
          </mxGeometry>
        </mxCell>
        <mxCell id="_-1G271mIU7XEoSfgBSJ-54" value="Entity&amp;nbsp;" style="whiteSpace=wrap;html=1;treeFolding=1;treeMoving=1;newEdgeStyle={&quot;edgeStyle&quot;:&quot;elbowEdgeStyle&quot;,&quot;startArrow&quot;:&quot;none&quot;,&quot;endArrow&quot;:&quot;none&quot;};fontSize=11;" vertex="1" parent="_-1G271mIU7XEoSfgBSJ-38">
          <mxGeometry x="265" y="115" width="90" height="35" as="geometry" />
        </mxCell>
        <mxCell id="_-1G271mIU7XEoSfgBSJ-60" value="Entity Class" style="whiteSpace=wrap;html=1;treeFolding=1;treeMoving=1;newEdgeStyle={&quot;edgeStyle&quot;:&quot;elbowEdgeStyle&quot;,&quot;startArrow&quot;:&quot;none&quot;,&quot;endArrow&quot;:&quot;none&quot;};fontSize=11;" vertex="1" parent="_-1G271mIU7XEoSfgBSJ-38">
          <mxGeometry x="305" y="167" width="100" height="23" as="geometry" />
        </mxCell>
        <mxCell id="_-1G271mIU7XEoSfgBSJ-61" style="edgeStyle=elbowEdgeStyle;rounded=0;orthogonalLoop=1;jettySize=auto;html=1;startArrow=none;endArrow=none;entryX=0.4;entryY=1;entryDx=0;entryDy=0;entryPerimeter=0;fontSize=11;" edge="1" parent="_-1G271mIU7XEoSfgBSJ-38" source="_-1G271mIU7XEoSfgBSJ-60" target="_-1G271mIU7XEoSfgBSJ-54">
          <mxGeometry relative="1" as="geometry" />
        </mxCell>
        <mxCell id="_-1G271mIU7XEoSfgBSJ-58" value="Entity Class" style="whiteSpace=wrap;html=1;treeFolding=1;treeMoving=1;newEdgeStyle={&quot;edgeStyle&quot;:&quot;elbowEdgeStyle&quot;,&quot;startArrow&quot;:&quot;none&quot;,&quot;endArrow&quot;:&quot;none&quot;};fontSize=11;" vertex="1" parent="_-1G271mIU7XEoSfgBSJ-38">
          <mxGeometry x="165" y="164" width="120" height="23" as="geometry" />
        </mxCell>
        <mxCell id="_-1G271mIU7XEoSfgBSJ-78" value="New York Datacenter" style="text;whiteSpace=wrap;fontSize=9;fontColor=#009C00;fontStyle=1;labelBackgroundColor=default;" vertex="1" parent="_-1G271mIU7XEoSfgBSJ-38">
          <mxGeometry x="55" y="149" width="90" height="15" as="geometry" />
        </mxCell>
        <mxCell id="_-1G271mIU7XEoSfgBSJ-79" value="Cloudward Inc" style="text;whiteSpace=wrap;fontSize=9;fontStyle=1;fontColor=#009C00;labelBackgroundColor=default;" vertex="1" parent="_-1G271mIU7XEoSfgBSJ-38">
          <mxGeometry x="335" y="108.75" width="110" height="27.5" as="geometry" />
        </mxCell>
        <mxCell id="_-1G271mIU7XEoSfgBSJ-81" value="1:1" style="text;html=1;align=center;verticalAlign=middle;resizable=0;points=[];autosize=1;strokeColor=none;fillColor=none;" vertex="1" parent="_-1G271mIU7XEoSfgBSJ-38">
          <mxGeometry x="425" y="197" width="40" height="30" as="geometry" />
        </mxCell>
        <mxCell id="_-1G271mIU7XEoSfgBSJ-177" value="Vendors" style="text;whiteSpace=wrap;fontSize=11;fontStyle=1;fontColor=#009C00;labelBackgroundColor=default;" vertex="1" parent="_-1G271mIU7XEoSfgBSJ-38">
          <mxGeometry x="300" y="36.25" width="65" height="27.5" as="geometry" />
        </mxCell>
        <mxCell id="_-1G271mIU7XEoSfgBSJ-176" value="Data Centers" style="text;whiteSpace=wrap;fontSize=11;fontColor=#009C00;fontStyle=1;labelBackgroundColor=default;" vertex="1" parent="_-1G271mIU7XEoSfgBSJ-38">
          <mxGeometry x="10" y="63.75" width="90" height="20" as="geometry" />
        </mxCell>
        <mxCell id="_-1G271mIU7XEoSfgBSJ-62" value="Control" style="whiteSpace=wrap;html=1;fontSize=11;fontStyle=1;startSize=20;direction=south;" vertex="1" parent="1">
          <mxGeometry x="600" y="315" width="70" height="40" as="geometry" />
        </mxCell>
        <mxCell id="_-1G271mIU7XEoSfgBSJ-66" value="Control" style="whiteSpace=wrap;html=1;fontSize=11;fontStyle=1;startSize=20;direction=south;" vertex="1" parent="1">
          <mxGeometry x="600" y="380" width="70" height="40" as="geometry" />
        </mxCell>
        <mxCell id="_-1G271mIU7XEoSfgBSJ-73" value="Manage visitor identification inside the facility.-CTRL0010016" style="text;whiteSpace=wrap;fontSize=9;fontColor=#009C00;" vertex="1" parent="1">
          <mxGeometry x="670" y="315" width="80" height="30" as="geometry" />
        </mxCell>
        <mxCell id="_-1G271mIU7XEoSfgBSJ-80" value="Manage visitor identification inside the facility." style="text;whiteSpace=wrap;fontSize=9;fontColor=#009C00;labelBackgroundColor=#FFFFFF;labelBorderColor=none;" vertex="1" parent="1">
          <mxGeometry x="680" y="390" width="80" height="30" as="geometry" />
        </mxCell>
        <mxCell id="_-1G271mIU7XEoSfgBSJ-100" value="Entity Type1" style="whiteSpace=wrap;html=1;treeFolding=1;treeMoving=1;newEdgeStyle={&quot;edgeStyle&quot;:&quot;elbowEdgeStyle&quot;,&quot;startArrow&quot;:&quot;none&quot;,&quot;endArrow&quot;:&quot;none&quot;};fontSize=11;" vertex="1" parent="1">
          <mxGeometry x="430" y="320" width="70" height="40" as="geometry" />
        </mxCell>
        <mxCell id="_-1G271mIU7XEoSfgBSJ-109" value="&#xa;&lt;span style=&quot;color: rgb(0, 0, 0); font-family: Helvetica; font-size: 11px; font-style: normal; font-variant-ligatures: normal; font-variant-caps: normal; font-weight: 400; letter-spacing: normal; orphans: 2; text-align: center; text-indent: 0px; text-transform: none; widows: 2; word-spacing: 0px; -webkit-text-stroke-width: 0px; white-space: nowrap; background-color: rgb(255, 255, 255); text-decoration-thickness: initial; text-decoration-style: initial; text-decoration-color: initial; display: inline !important; float: none;&quot;&gt;Generate&lt;/span&gt;&#xa;&#xa;" style="edgeStyle=elbowEdgeStyle;rounded=0;orthogonalLoop=1;jettySize=auto;html=1;startArrow=none;endArrow=none;entryX=0.25;entryY=1;entryDx=0;entryDy=0;elbow=vertical;" edge="1" parent="1" source="_-1G271mIU7XEoSfgBSJ-102" target="_-1G271mIU7XEoSfgBSJ-66">
          <mxGeometry relative="1" as="geometry" />
        </mxCell>
        <mxCell id="_-1G271mIU7XEoSfgBSJ-102" value="Entity Type n" style="whiteSpace=wrap;html=1;treeFolding=1;treeMoving=1;newEdgeStyle={&quot;edgeStyle&quot;:&quot;elbowEdgeStyle&quot;,&quot;startArrow&quot;:&quot;none&quot;,&quot;endArrow&quot;:&quot;none&quot;};fontSize=11;" vertex="1" parent="1">
          <mxGeometry x="430" y="370" width="70" height="40" as="geometry" />
        </mxCell>
        <mxCell id="_-1G271mIU7XEoSfgBSJ-106" style="edgeStyle=orthogonalEdgeStyle;rounded=0;orthogonalLoop=1;jettySize=auto;html=1;dashed=1;entryX=0;entryY=0.5;entryDx=0;entryDy=0;exitX=0.622;exitY=1.133;exitDx=0;exitDy=0;exitPerimeter=0;" edge="1" parent="1" target="_-1G271mIU7XEoSfgBSJ-102">
          <mxGeometry relative="1" as="geometry">
            <mxPoint x="400" y="346" as="targetPoint" />
            <mxPoint x="346" y="260" as="sourcePoint" />
            <Array as="points">
              <mxPoint x="346" y="346" />
              <mxPoint x="345" y="346" />
              <mxPoint x="345" y="390" />
            </Array>
          </mxGeometry>
        </mxCell>
        <mxCell id="_-1G271mIU7XEoSfgBSJ-113" value="Associate" style="edgeLabel;html=1;align=center;verticalAlign=middle;resizable=0;points=[];" connectable="0" vertex="1" parent="_-1G271mIU7XEoSfgBSJ-106">
          <mxGeometry x="-0.4259" relative="1" as="geometry">
            <mxPoint as="offset" />
          </mxGeometry>
        </mxCell>
        <mxCell id="_-1G271mIU7XEoSfgBSJ-110" value="Generate" style="edgeStyle=elbowEdgeStyle;rounded=0;orthogonalLoop=1;jettySize=auto;html=1;startArrow=none;endArrow=none;entryX=0.25;entryY=1;entryDx=0;entryDy=0;elbow=vertical;" edge="1" parent="1">
          <mxGeometry relative="1" as="geometry">
            <mxPoint x="500" y="339.5" as="sourcePoint" />
            <mxPoint x="600" y="339.5" as="targetPoint" />
          </mxGeometry>
        </mxCell>
        <mxCell id="_-1G271mIU7XEoSfgBSJ-111" value="Entity Scoping" style="text;whiteSpace=wrap;fontSize=13;fontColor=#000066;fontStyle=1;labelBackgroundColor=default;" vertex="1" parent="1">
          <mxGeometry x="560" y="265" width="110" height="30" as="geometry" />
        </mxCell>
        <mxCell id="AcyV1eYRO90Xr-etmsFE-8" value="" style="edgeStyle=orthogonalEdgeStyle;rounded=0;orthogonalLoop=1;jettySize=auto;html=1;" edge="1" parent="1" source="_-1G271mIU7XEoSfgBSJ-119" target="_-1G271mIU7XEoSfgBSJ-123">
          <mxGeometry relative="1" as="geometry" />
        </mxCell>
        <mxCell id="_-1G271mIU7XEoSfgBSJ-119" value="&lt;span style=&quot;font-size: 10px;&quot;&gt;Attestation&lt;/span&gt;" style="shape=parallelogram;perimeter=parallelogramPerimeter;whiteSpace=wrap;html=1;fixedSize=1;" vertex="1" parent="1">
          <mxGeometry x="780" y="282.5" width="90" height="45" as="geometry" />
        </mxCell>
        <mxCell id="_-1G271mIU7XEoSfgBSJ-121" value="" style="shape=curlyBracket;whiteSpace=wrap;html=1;rounded=1;labelPosition=left;verticalLabelPosition=middle;align=right;verticalAlign=middle;" vertex="1" parent="1">
          <mxGeometry x="720" y="270" width="100" height="250" as="geometry" />
        </mxCell>
        <mxCell id="_-1G271mIU7XEoSfgBSJ-123" value="&lt;b&gt;Control -&amp;nbsp;&lt;/b&gt;&lt;div&gt;Compliant/&lt;div&gt;Non-Conpliant&lt;/div&gt;&lt;/div&gt;" style="shape=ext;double=1;rounded=1;whiteSpace=wrap;html=1;" vertex="1" parent="1">
          <mxGeometry x="920" y="275" width="100" height="60" as="geometry" />
        </mxCell>
        <mxCell id="_-1G271mIU7XEoSfgBSJ-124" value="&lt;font style=&quot;font-size: 11px;&quot;&gt;Compliance Score Calculation&lt;/font&gt;&lt;div&gt;&lt;font style=&quot;font-size: 14px;&quot;&gt;&lt;b style=&quot;&quot;&gt;=&lt;/b&gt;&lt;/font&gt;&lt;/div&gt;&lt;div&gt;&lt;font style=&quot;&quot;&gt;&lt;span style=&quot;font-size: 11px;&quot;&gt;Sum of all compliance score &lt;/span&gt;&lt;b style=&quot;&quot;&gt;&lt;font style=&quot;&quot;&gt;&lt;font style=&quot;font-size: 14px;&quot;&gt;/&lt;/font&gt; &lt;/font&gt;&lt;/b&gt;&lt;span style=&quot;font-size: 11px;&quot;&gt;Sum of all score&lt;/span&gt;&lt;/font&gt;&lt;/div&gt;" style="whiteSpace=wrap;html=1;shape=mxgraph.basic.document" vertex="1" parent="1">
          <mxGeometry x="2040" y="210" width="180" height="100" as="geometry" />
        </mxCell>
        <mxCell id="_-1G271mIU7XEoSfgBSJ-126" value="Policy Ack Campaign&lt;div&gt;Cycle&lt;/div&gt;" style="rounded=1;whiteSpace=wrap;html=1;fontSize=10;" vertex="1" parent="1">
          <mxGeometry x="270" y="-80" width="100" height="40" as="geometry" />
        </mxCell>
        <mxCell id="_-1G271mIU7XEoSfgBSJ-127" value="Policy Exception&lt;div&gt;Cycle&lt;/div&gt;" style="rounded=1;whiteSpace=wrap;html=1;fontSize=9;" vertex="1" parent="1">
          <mxGeometry x="400" y="-80" width="100" height="40" as="geometry" />
        </mxCell>
        <mxCell id="_-1G271mIU7XEoSfgBSJ-144" value="" style="shape=module;align=left;spacingLeft=20;align=center;verticalAlign=top;whiteSpace=wrap;html=1;strokeWidth=2;" vertex="1" parent="1">
          <mxGeometry x="-310" y="400" width="600" height="375" as="geometry" />
        </mxCell>
        <mxCell id="_-1G271mIU7XEoSfgBSJ-152" value="" style="edgeStyle=elbowEdgeStyle;rounded=0;orthogonalLoop=1;jettySize=auto;html=1;elbow=horizontal;startArrow=none;endArrow=none;strokeWidth=2;" edge="1" parent="1" source="_-1G271mIU7XEoSfgBSJ-145" target="_-1G271mIU7XEoSfgBSJ-147">
          <mxGeometry relative="1" as="geometry" />
        </mxCell>
        <mxCell id="_-1G271mIU7XEoSfgBSJ-145" value="&lt;b&gt;Entity Type&lt;/b&gt;" style="whiteSpace=wrap;html=1;treeFolding=1;treeMoving=1;newEdgeStyle={&quot;edgeStyle&quot;:&quot;elbowEdgeStyle&quot;,&quot;startArrow&quot;:&quot;none&quot;,&quot;endArrow&quot;:&quot;none&quot;};strokeWidth=2;fillColor=#CCFFFF;" vertex="1" parent="1">
          <mxGeometry x="40" y="490" width="110" height="40" as="geometry" />
        </mxCell>
        <mxCell id="_-1G271mIU7XEoSfgBSJ-151" value="" style="edgeStyle=elbowEdgeStyle;rounded=0;orthogonalLoop=1;jettySize=auto;html=1;elbow=horizontal;startArrow=none;endArrow=none;strokeWidth=2;" edge="1" parent="1" source="_-1G271mIU7XEoSfgBSJ-146" target="_-1G271mIU7XEoSfgBSJ-147">
          <mxGeometry relative="1" as="geometry" />
        </mxCell>
        <mxCell id="_-1G271mIU7XEoSfgBSJ-154" value="" style="edgeStyle=elbowEdgeStyle;rounded=0;orthogonalLoop=1;jettySize=auto;html=1;elbow=vertical;startArrow=none;endArrow=none;strokeWidth=2;" edge="1" parent="1" source="_-1G271mIU7XEoSfgBSJ-146" target="_-1G271mIU7XEoSfgBSJ-153">
          <mxGeometry relative="1" as="geometry" />
        </mxCell>
        <mxCell id="_-1G271mIU7XEoSfgBSJ-146" value="&lt;b&gt;Indicator Template&lt;/b&gt;" style="whiteSpace=wrap;html=1;treeFolding=1;treeMoving=1;newEdgeStyle={&quot;edgeStyle&quot;:&quot;elbowEdgeStyle&quot;,&quot;startArrow&quot;:&quot;none&quot;,&quot;endArrow&quot;:&quot;none&quot;};strokeWidth=2;" vertex="1" parent="1">
          <mxGeometry x="-257" y="531" width="90" height="40" as="geometry" />
        </mxCell>
        <mxCell id="_-1G271mIU7XEoSfgBSJ-150" value="" style="edgeStyle=elbowEdgeStyle;rounded=0;orthogonalLoop=1;jettySize=auto;html=1;elbow=vertical;startArrow=none;endArrow=none;strokeWidth=2;" edge="1" parent="1" source="_-1G271mIU7XEoSfgBSJ-147">
          <mxGeometry relative="1" as="geometry">
            <mxPoint x="-60" y="560" as="targetPoint" />
          </mxGeometry>
        </mxCell>
        <mxCell id="_-1G271mIU7XEoSfgBSJ-147" value="&lt;b&gt;Risk Statement&lt;/b&gt;" style="whiteSpace=wrap;html=1;treeFolding=1;treeMoving=1;newEdgeStyle={&quot;edgeStyle&quot;:&quot;elbowEdgeStyle&quot;,&quot;startArrow&quot;:&quot;none&quot;,&quot;endArrow&quot;:&quot;none&quot;};strokeWidth=2;fillColor=#CCFFFF;" vertex="1" parent="1">
          <mxGeometry x="-120" y="490" width="120" height="40" as="geometry" />
        </mxCell>
        <mxCell id="_-1G271mIU7XEoSfgBSJ-156" value="Related" style="edgeStyle=elbowEdgeStyle;rounded=0;orthogonalLoop=1;jettySize=auto;html=1;elbow=horizontal;startArrow=none;endArrow=none;strokeWidth=2;" edge="1" parent="1" target="_-1G271mIU7XEoSfgBSJ-155">
          <mxGeometry relative="1" as="geometry">
            <mxPoint y="575" as="sourcePoint" />
          </mxGeometry>
        </mxCell>
        <mxCell id="_-1G271mIU7XEoSfgBSJ-153" value="&lt;font&gt;Indicators&lt;/font&gt;" style="shape=parallelogram;perimeter=parallelogramPerimeter;whiteSpace=wrap;html=1;fixedSize=1;fontSize=11;strokeWidth=2;" vertex="1" parent="1">
          <mxGeometry x="-260" y="591" width="95" height="30" as="geometry" />
        </mxCell>
        <mxCell id="_-1G271mIU7XEoSfgBSJ-155" value="Entity" style="whiteSpace=wrap;html=1;fontSize=11;fillColor=#FFF2CC;strokeColor=#C73500;fontColor=#000000;labelBackgroundColor=none;gradientColor=none;strokeWidth=2;" vertex="1" parent="1">
          <mxGeometry x="120" y="540" width="81" height="28" as="geometry" />
        </mxCell>
        <mxCell id="_-1G271mIU7XEoSfgBSJ-157" value="Issue" style="whiteSpace=wrap;html=1;fontSize=11;fillColor=#FFF2CC;strokeColor=#C73500;fontColor=#000000;labelBackgroundColor=none;gradientColor=none;strokeWidth=2;" vertex="1" parent="1">
          <mxGeometry x="-108" y="660" width="96" height="30" as="geometry" />
        </mxCell>
        <mxCell id="_-1G271mIU7XEoSfgBSJ-159" value="Risk Assessment Task" style="whiteSpace=wrap;html=1;fontSize=11;fillColor=#FFF2CC;strokeColor=#C73500;fontColor=#000000;labelBackgroundColor=none;gradientColor=none;strokeWidth=2;" vertex="1" parent="1">
          <mxGeometry x="-260" y="660" width="110" height="30" as="geometry" />
        </mxCell>
        <mxCell id="_-1G271mIU7XEoSfgBSJ-160" value="Risk Response&lt;div&gt;Task&lt;/div&gt;" style="whiteSpace=wrap;html=1;fontSize=11;fillColor=#FFF2CC;strokeColor=#C73500;fontColor=#000000;labelBackgroundColor=none;gradientColor=none;strokeWidth=2;" vertex="1" parent="1">
          <mxGeometry x="30" y="660" width="110" height="30" as="geometry" />
        </mxCell>
        <mxCell id="_-1G271mIU7XEoSfgBSJ-168" style="edgeStyle=orthogonalEdgeStyle;rounded=0;orthogonalLoop=1;jettySize=auto;html=1;entryX=0.5;entryY=0;entryDx=0;entryDy=0;strokeWidth=2;" edge="1" parent="1" source="_-1G271mIU7XEoSfgBSJ-167" target="_-1G271mIU7XEoSfgBSJ-157">
          <mxGeometry relative="1" as="geometry" />
        </mxCell>
        <mxCell id="_-1G271mIU7XEoSfgBSJ-170" style="edgeStyle=orthogonalEdgeStyle;rounded=0;orthogonalLoop=1;jettySize=auto;html=1;entryX=0.75;entryY=0;entryDx=0;entryDy=0;exitX=0.5;exitY=1;exitDx=0;exitDy=0;strokeWidth=2;" edge="1" parent="1" source="_-1G271mIU7XEoSfgBSJ-167" target="_-1G271mIU7XEoSfgBSJ-159">
          <mxGeometry relative="1" as="geometry">
            <Array as="points">
              <mxPoint x="-60" y="620" />
              <mxPoint x="-177" y="620" />
            </Array>
          </mxGeometry>
        </mxCell>
        <mxCell id="_-1G271mIU7XEoSfgBSJ-172" style="edgeStyle=orthogonalEdgeStyle;rounded=0;orthogonalLoop=1;jettySize=auto;html=1;entryX=0.25;entryY=0;entryDx=0;entryDy=0;exitX=0.5;exitY=1;exitDx=0;exitDy=0;strokeWidth=2;" edge="1" parent="1" source="_-1G271mIU7XEoSfgBSJ-167" target="_-1G271mIU7XEoSfgBSJ-160">
          <mxGeometry relative="1" as="geometry" />
        </mxCell>
        <mxCell id="_-1G271mIU7XEoSfgBSJ-167" value="Risk" style="whiteSpace=wrap;html=1;fontSize=11;fillColor=#FFF2CC;strokeColor=#C73500;fontColor=#000000;labelBackgroundColor=none;gradientColor=none;strokeWidth=2;" vertex="1" parent="1">
          <mxGeometry x="-115" y="561" width="110" height="30" as="geometry" />
        </mxCell>
        <mxCell id="_-1G271mIU7XEoSfgBSJ-173" value="Control" style="whiteSpace=wrap;html=1;fontSize=11;fillColor=#FFF2CC;strokeColor=#C73500;fontColor=#000000;labelBackgroundColor=none;gradientColor=none;strokeWidth=2;" vertex="1" parent="1">
          <mxGeometry x="120" y="583.5" width="81" height="28" as="geometry" />
        </mxCell>
        <mxCell id="_-1G271mIU7XEoSfgBSJ-174" value="Related" style="edgeStyle=elbowEdgeStyle;rounded=0;orthogonalLoop=1;jettySize=auto;html=1;elbow=horizontal;startArrow=none;endArrow=none;entryX=0;entryY=0.5;entryDx=0;entryDy=0;exitX=1;exitY=0.5;exitDx=0;exitDy=0;strokeWidth=2;" edge="1" parent="1" source="_-1G271mIU7XEoSfgBSJ-167" target="_-1G271mIU7XEoSfgBSJ-173">
          <mxGeometry relative="1" as="geometry">
            <mxPoint x="10" y="585" as="sourcePoint" />
            <mxPoint x="130" y="564" as="targetPoint" />
          </mxGeometry>
        </mxCell>
        <mxCell id="_-1G271mIU7XEoSfgBSJ-175" value="Advance Risk Assessment Is a separate Workflow - &lt;b&gt;ARA&lt;/b&gt;" style="whiteSpace=wrap;html=1;fontSize=11;fillColor=#FFF2CC;strokeColor=#C73500;fontColor=#000000;labelBackgroundColor=none;gradientColor=none;" vertex="1" parent="1">
          <mxGeometry x="-310" y="820" width="150" height="60" as="geometry" />
        </mxCell>
        <mxCell id="_-1G271mIU7XEoSfgBSJ-178" value="Data Centers" style="text;whiteSpace=wrap;fontSize=11;fontColor=#009C00;fontStyle=1;labelBackgroundColor=default;" vertex="1" parent="1">
          <mxGeometry x="380" y="315" width="90" height="20" as="geometry" />
        </mxCell>
        <mxCell id="_-1G271mIU7XEoSfgBSJ-200" value="Vendors" style="text;whiteSpace=wrap;fontSize=11;fontStyle=1;fontColor=#009C00;labelBackgroundColor=default;" vertex="1" parent="1">
          <mxGeometry x="350" y="386.25" width="65" height="27.5" as="geometry" />
        </mxCell>
        <UserObject label="&lt;font style=&quot;font-size: 11px;&quot;&gt;Risk =&amp;nbsp;RK0010122&lt;/font&gt;" id="_-1G271mIU7XEoSfgBSJ-219">
          <mxCell style="text;whiteSpace=wrap;html=1;fontColor=#009C00;" vertex="1" parent="1">
            <mxGeometry x="-590" y="630" width="100" height="30" as="geometry" />
          </mxCell>
        </UserObject>
        <mxCell id="_-1G271mIU7XEoSfgBSJ-222" style="edgeStyle=orthogonalEdgeStyle;rounded=0;orthogonalLoop=1;jettySize=auto;html=1;entryX=0.5;entryY=0;entryDx=0;entryDy=0;strokeWidth=2;" edge="1" parent="1" source="_-1G271mIU7XEoSfgBSJ-220" target="_-1G271mIU7XEoSfgBSJ-219">
          <mxGeometry relative="1" as="geometry" />
        </mxCell>
        <UserObject label="&lt;font&gt;Risk Statement =&amp;nbsp;Earthquake&lt;/font&gt;" id="_-1G271mIU7XEoSfgBSJ-220">
          <mxCell style="text;whiteSpace=wrap;html=1;fontColor=#009C00;" vertex="1" parent="1">
            <mxGeometry x="-720" y="500" width="190" height="30" as="geometry" />
          </mxCell>
        </UserObject>
        <mxCell id="_-1G271mIU7XEoSfgBSJ-227" value="" style="shape=cross;whiteSpace=wrap;html=1;fontStyle=1;textShadow=0;labelBackgroundColor=#e46767;fillColor=#fad7ac;strokeColor=#b46504;" vertex="1" parent="1">
          <mxGeometry x="-550" y="505" width="20" height="20" as="geometry" />
        </mxCell>
        <UserObject label="&lt;font color=&quot;#003300&quot;&gt;Entity type =&lt;/font&gt;&lt;font color=&quot;#003300&quot;&gt;Windstorm/Tornado&lt;/font&gt;" link="&lt;a class=&quot;linked&quot; aria-label=&quot;Open record: Data Centers&quot; href=&quot;https://nowlearning-nlinst02304624-0001.lab.service-now.com/sn_grc_profile_type.do?sys_id=d85a18e70fd412004e938fbce1050e49&amp;amp;sysparm_view=advanced_risk&quot; style=&quot;box-sizing: border-box; scrollbar-color: RGB(var(--now-unified-nav_menu-scrollbar--color,var(--now-color_chrome--divider-3,92,109,110))) RGB(var(--now-color_background--secondary,var(--now-color--neutral-1,246,247,247))); scrollbar-width: auto; background: 0px 0px rgb(255, 255, 255); color: RGB(var(--now-text-link--primary--color,var(--now-color--link-2,1,119,142))); cursor: pointer; text-decoration: none; transition: color 0.3s cubic-bezier(0.075, 0.82, 0.165, 1); font-weight: 400; font-size: 14px; font-family: Lato, Arial, sans-serif; font-style: normal; font-variant-ligatures: normal; font-variant-caps: normal; letter-spacing: normal; orphans: 2; text-align: left; text-indent: 0px; text-transform: none; widows: 2; word-spacing: 0px; -webkit-text-stroke-width: 0px; white-space: normal;&quot;&gt;Data Centers&lt;/a&gt;" id="_-1G271mIU7XEoSfgBSJ-228">
          <mxCell style="text;whiteSpace=wrap;html=1;fontColor=#006633;" vertex="1" parent="1">
            <mxGeometry x="-520" y="500" width="190" height="30" as="geometry" />
          </mxCell>
        </UserObject>
        <mxCell id="_-1G271mIU7XEoSfgBSJ-229" style="edgeStyle=orthogonalEdgeStyle;rounded=0;orthogonalLoop=1;jettySize=auto;html=1;strokeWidth=2;exitX=0.75;exitY=1;exitDx=0;exitDy=0;" edge="1" parent="1" source="_-1G271mIU7XEoSfgBSJ-228">
          <mxGeometry relative="1" as="geometry">
            <mxPoint x="-615" y="540" as="sourcePoint" />
            <mxPoint x="-530" y="630" as="targetPoint" />
            <Array as="points">
              <mxPoint x="-430" y="585" />
              <mxPoint x="-529" y="585" />
            </Array>
          </mxGeometry>
        </mxCell>
        <mxCell id="_-1G271mIU7XEoSfgBSJ-230" value="Entity =New York Datacenter" style="text;whiteSpace=wrap;fontSize=10;" vertex="1" parent="1">
          <mxGeometry x="-460" y="670" width="120" height="20" as="geometry" />
        </mxCell>
        <mxCell id="_-1G271mIU7XEoSfgBSJ-231" value="Control=Use locks with electronic authentication systems or cipher locks, as necessary." style="text;whiteSpace=wrap;fontSize=10;" vertex="1" parent="1">
          <mxGeometry x="-600" y="710" width="120" height="20" as="geometry" />
        </mxCell>
        <mxCell id="_-1G271mIU7XEoSfgBSJ-262" value="Points" style="swimlane;startSize=20;horizontal=1;containerType=tree;fontSize=11;whiteSpace=wrap;" vertex="1" parent="1">
          <mxGeometry x="520" y="591" width="1020" height="290" as="geometry">
            <mxRectangle x="520" y="591" width="110" height="30" as="alternateBounds" />
          </mxGeometry>
        </mxCell>
        <mxCell id="_-1G271mIU7XEoSfgBSJ-284" value="Control Objectives" style="rounded=1;whiteSpace=wrap;html=1;" vertex="1" parent="_-1G271mIU7XEoSfgBSJ-262">
          <mxGeometry x="215" y="91" width="90" height="39" as="geometry" />
        </mxCell>
        <mxCell id="_-1G271mIU7XEoSfgBSJ-285" value="&lt;b&gt;Risk Statement&lt;/b&gt;" style="whiteSpace=wrap;html=1;treeFolding=1;treeMoving=1;newEdgeStyle={&quot;edgeStyle&quot;:&quot;elbowEdgeStyle&quot;,&quot;startArrow&quot;:&quot;none&quot;,&quot;endArrow&quot;:&quot;none&quot;};" vertex="1" parent="_-1G271mIU7XEoSfgBSJ-262">
          <mxGeometry x="45" y="91" width="120" height="40" as="geometry" />
        </mxCell>
        <mxCell id="_-1G271mIU7XEoSfgBSJ-286" value="" style="shape=cross;whiteSpace=wrap;html=1;fontStyle=1;textShadow=0;labelBackgroundColor=#e46767;fillColor=#fad7ac;strokeColor=#b46504;" vertex="1" parent="_-1G271mIU7XEoSfgBSJ-262">
          <mxGeometry x="175" y="98" width="20" height="20" as="geometry" />
        </mxCell>
        <mxCell id="_-1G271mIU7XEoSfgBSJ-287" value="Control_Entity" style="rounded=1;whiteSpace=wrap;html=1;" vertex="1" parent="_-1G271mIU7XEoSfgBSJ-262">
          <mxGeometry x="365" y="88" width="90" height="39" as="geometry" />
        </mxCell>
        <mxCell id="_-1G271mIU7XEoSfgBSJ-288" value="Risk_Entity" style="rounded=1;whiteSpace=wrap;html=1;" vertex="1" parent="_-1G271mIU7XEoSfgBSJ-262">
          <mxGeometry x="515" y="88" width="90" height="39" as="geometry" />
        </mxCell>
        <mxCell id="_-1G271mIU7XEoSfgBSJ-289" value="" style="shape=image;html=1;verticalAlign=top;verticalLabelPosition=bottom;labelBackgroundColor=#ffffff;imageAspect=0;aspect=fixed;image=https://cdn2.iconfinder.com/data/icons/css-vol-2/24/math-equal-128.png" vertex="1" parent="_-1G271mIU7XEoSfgBSJ-262">
          <mxGeometry x="465" y="90" width="38" height="38" as="geometry" />
        </mxCell>
        <mxCell id="_-1G271mIU7XEoSfgBSJ-290" value="" style="shape=singleArrow;whiteSpace=wrap;html=1;arrowWidth=0.4;arrowSize=0.4;rounded=1;" vertex="1" parent="_-1G271mIU7XEoSfgBSJ-262">
          <mxGeometry x="635" y="100.75" width="35" height="10.5" as="geometry" />
        </mxCell>
        <mxCell id="_-1G271mIU7XEoSfgBSJ-291" value="" style="edgeStyle=orthogonalEdgeStyle;rounded=0;orthogonalLoop=1;jettySize=auto;html=1;" edge="1" parent="_-1G271mIU7XEoSfgBSJ-262" source="_-1G271mIU7XEoSfgBSJ-293" target="_-1G271mIU7XEoSfgBSJ-294">
          <mxGeometry relative="1" as="geometry" />
        </mxCell>
        <mxCell id="_-1G271mIU7XEoSfgBSJ-292" value="Associate" style="edgeLabel;html=1;align=center;verticalAlign=middle;resizable=0;points=[];" connectable="0" vertex="1" parent="_-1G271mIU7XEoSfgBSJ-291">
          <mxGeometry x="-0.325" relative="1" as="geometry">
            <mxPoint as="offset" />
          </mxGeometry>
        </mxCell>
        <mxCell id="_-1G271mIU7XEoSfgBSJ-293" value="Control" style="whiteSpace=wrap;html=1;fontSize=11;fontStyle=1;startSize=20;direction=south;" vertex="1" parent="_-1G271mIU7XEoSfgBSJ-262">
          <mxGeometry x="685" y="90" width="70" height="40" as="geometry" />
        </mxCell>
        <mxCell id="_-1G271mIU7XEoSfgBSJ-294" value="Risk" style="whiteSpace=wrap;html=1;fontSize=11;fontStyle=1;startSize=20;direction=south;" vertex="1" parent="_-1G271mIU7XEoSfgBSJ-262">
          <mxGeometry x="835" y="90" width="70" height="40" as="geometry" />
        </mxCell>
        <mxCell id="_-1G271mIU7XEoSfgBSJ-296" value="" style="shape=curlyBracket;whiteSpace=wrap;html=1;rounded=1;flipH=1;labelPosition=right;verticalLabelPosition=middle;align=left;verticalAlign=middle;rotation=-90;strokeWidth=2;" vertex="1" parent="_-1G271mIU7XEoSfgBSJ-262">
          <mxGeometry x="785" y="-50" width="20" height="240" as="geometry" />
        </mxCell>
        <mxCell id="_-1G271mIU7XEoSfgBSJ-297" value="&lt;b&gt;Indicator Template&lt;/b&gt;" style="whiteSpace=wrap;html=1;treeFolding=1;treeMoving=1;newEdgeStyle={&quot;edgeStyle&quot;:&quot;elbowEdgeStyle&quot;,&quot;startArrow&quot;:&quot;none&quot;,&quot;endArrow&quot;:&quot;none&quot;};" vertex="1" parent="_-1G271mIU7XEoSfgBSJ-262">
          <mxGeometry x="45" y="170" width="120" height="40" as="geometry" />
        </mxCell>
        <mxCell id="_-1G271mIU7XEoSfgBSJ-299" value="" style="shape=singleArrow;whiteSpace=wrap;html=1;arrowWidth=0.4;arrowSize=0.4;rounded=1;" vertex="1" parent="_-1G271mIU7XEoSfgBSJ-262">
          <mxGeometry x="180" y="184.75" width="35" height="10.5" as="geometry" />
        </mxCell>
        <mxCell id="_-1G271mIU7XEoSfgBSJ-300" value="Indicators" style="rounded=1;whiteSpace=wrap;html=1;" vertex="1" parent="_-1G271mIU7XEoSfgBSJ-262">
          <mxGeometry x="225" y="171" width="90" height="39" as="geometry" />
        </mxCell>
        <mxCell id="_-1G271mIU7XEoSfgBSJ-301" value="Indicator task" style="rounded=1;whiteSpace=wrap;html=1;" vertex="1" parent="_-1G271mIU7XEoSfgBSJ-262">
          <mxGeometry x="365" y="171" width="90" height="39" as="geometry" />
        </mxCell>
        <mxCell id="_-1G271mIU7XEoSfgBSJ-302" style="edgeStyle=orthogonalEdgeStyle;rounded=0;orthogonalLoop=1;jettySize=auto;html=1;exitX=0;exitY=0;exitDx=21;exitDy=10.5;exitPerimeter=0;entryX=0;entryY=0;entryDx=21;entryDy=0;entryPerimeter=0;" edge="1" parent="_-1G271mIU7XEoSfgBSJ-262">
          <mxGeometry relative="1" as="geometry">
            <mxPoint x="341" y="113.25" as="sourcePoint" />
            <mxPoint x="341" y="102.75" as="targetPoint" />
          </mxGeometry>
        </mxCell>
        <mxCell id="_-1G271mIU7XEoSfgBSJ-303" style="edgeStyle=orthogonalEdgeStyle;rounded=0;orthogonalLoop=1;jettySize=auto;html=1;exitX=0;exitY=0;exitDx=21;exitDy=10.5;exitPerimeter=0;entryX=0;entryY=0;entryDx=21;entryDy=0;entryPerimeter=0;" edge="1" parent="_-1G271mIU7XEoSfgBSJ-262">
          <mxGeometry relative="1" as="geometry">
            <mxPoint x="351" y="123" as="sourcePoint" />
            <mxPoint x="351" y="113" as="targetPoint" />
          </mxGeometry>
        </mxCell>
        <mxCell id="_-1G271mIU7XEoSfgBSJ-304" value="" style="shape=singleArrow;whiteSpace=wrap;html=1;arrowWidth=0.4;arrowSize=0.4;rounded=1;" vertex="1" parent="_-1G271mIU7XEoSfgBSJ-262">
          <mxGeometry x="320" y="102.75" width="35" height="10.5" as="geometry" />
        </mxCell>
        <mxCell id="_-1G271mIU7XEoSfgBSJ-305" value="" style="shape=singleArrow;whiteSpace=wrap;html=1;arrowWidth=0.4;arrowSize=0.4;rounded=1;" vertex="1" parent="_-1G271mIU7XEoSfgBSJ-262">
          <mxGeometry x="320" y="185.25" width="35" height="10.5" as="geometry" />
        </mxCell>
        <mxCell id="_-1G271mIU7XEoSfgBSJ-306" value="" style="shape=image;html=1;verticalAlign=top;verticalLabelPosition=bottom;labelBackgroundColor=#ffffff;imageAspect=0;aspect=fixed;image=https://cdn2.iconfinder.com/data/icons/css-vol-2/24/math-equal-128.png" vertex="1" parent="_-1G271mIU7XEoSfgBSJ-262">
          <mxGeometry x="467" y="172" width="38" height="38" as="geometry" />
        </mxCell>
        <mxCell id="_-1G271mIU7XEoSfgBSJ-307" value="Pass / Fail" style="strokeWidth=2;html=1;shape=mxgraph.flowchart.document2;whiteSpace=wrap;size=0.25;" vertex="1" parent="_-1G271mIU7XEoSfgBSJ-262">
          <mxGeometry x="510" y="170" width="100" height="60" as="geometry" />
        </mxCell>
        <mxCell id="_-1G271mIU7XEoSfgBSJ-298" value="&lt;p class=&quot;MsoNormal&quot;&gt;&lt;span style=&quot;line-height: 115%; font-family: Calibri, sans-serif;&quot;&gt;&lt;font style=&quot;font-size: 10px;&quot;&gt;Created at&amp;nbsp; Policy /&lt;/font&gt;&lt;/span&gt;&lt;/p&gt;&lt;p class=&quot;MsoNormal&quot;&gt;&lt;span style=&quot;font-size: 10px; font-family: Calibri, sans-serif; background-color: initial;&quot;&gt;Risk Statement&lt;/span&gt;&lt;/p&gt;" style="ellipse;shape=cloud;whiteSpace=wrap;html=1;fillColor=#f5f5f5;gradientColor=#b3b3b3;strokeColor=#666666;" vertex="1" parent="_-1G271mIU7XEoSfgBSJ-262">
          <mxGeometry x="5" y="200" width="140" height="60" as="geometry" />
        </mxCell>
        <mxCell id="_-1G271mIU7XEoSfgBSJ-295" value="&lt;font style=&quot;font-size: 10px; background-color: rgb(255, 255, 255);&quot;&gt;&lt;span style=&quot;box-sizing: inherit; font-family: monospace;&quot; class=&quot;keyword parmname&quot;&gt;GRC Profile Generation&lt;/span&gt;&lt;span style=&quot;font-family: Lato;&quot;&gt;&amp;nbsp;scheduled job&lt;/span&gt;&lt;/font&gt;" style="whiteSpace=wrap;html=1;shape=mxgraph.basic.oval_callout;fillColor=#FFF2CC;align=center;" vertex="1" parent="_-1G271mIU7XEoSfgBSJ-262">
          <mxGeometry x="880" y="10" width="135" height="70" as="geometry" />
        </mxCell>
        <mxCell id="u-4r6lbKXhGjoUlRPjdH-2" value="&lt;font style=&quot;font-size: 11px;&quot;&gt;Attestation -&amp;nbsp;&lt;span style=&quot;color: rgb(0, 29, 53); font-family: &amp;quot;Google Sans&amp;quot;, Arial, sans-serif; text-align: start; background-color: rgb(211, 227, 253);&quot;&gt;&lt;font style=&quot;&quot;&gt;surveys or assessments that collect evidence to show that a control is being implemented correctly&lt;/font&gt;&lt;/span&gt;&lt;/font&gt;" style="shape=note;whiteSpace=wrap;html=1;backgroundOutline=1;darkOpacity=0.05;" vertex="1" parent="1">
          <mxGeometry x="2040" y="322.5" width="130" height="100" as="geometry" />
        </mxCell>
        <mxCell id="AcyV1eYRO90Xr-etmsFE-2" value="Issue" style="whiteSpace=wrap;html=1;fontSize=11;fontStyle=1;startSize=20;direction=south;" vertex="1" parent="1">
          <mxGeometry x="1120" y="295" width="50" height="25" as="geometry" />
        </mxCell>
        <mxCell id="AcyV1eYRO90Xr-etmsFE-7" value="" style="edgeStyle=orthogonalEdgeStyle;rounded=0;orthogonalLoop=1;jettySize=auto;html=1;" edge="1" parent="1" source="AcyV1eYRO90Xr-etmsFE-3" target="AcyV1eYRO90Xr-etmsFE-2">
          <mxGeometry relative="1" as="geometry" />
        </mxCell>
        <mxCell id="AcyV1eYRO90Xr-etmsFE-3" value="&lt;span style=&quot;font-weight: 400;&quot;&gt;&lt;font style=&quot;font-size: 11px;&quot;&gt;Non-Conpliant&lt;/font&gt;&lt;/span&gt;" style="whiteSpace=wrap;html=1;fontSize=11;fontStyle=1;startSize=20;direction=south;" vertex="1" parent="1">
          <mxGeometry x="1020" y="290" width="60" height="35" as="geometry" />
        </mxCell>
        <mxCell id="AcyV1eYRO90Xr-etmsFE-11" value="&lt;font style=&quot;font-size: 10px;&quot;&gt;Control Test- Run by Auditors to confirm Control Enforcement&lt;/font&gt;" style="shape=parallelogram;perimeter=parallelogramPerimeter;whiteSpace=wrap;html=1;fixedSize=1;" vertex="1" parent="1">
          <mxGeometry x="780" y="440" width="200" height="70" as="geometry" />
        </mxCell>
        <mxCell id="AcyV1eYRO90Xr-etmsFE-24" value="" style="edgeStyle=orthogonalEdgeStyle;rounded=0;orthogonalLoop=1;jettySize=auto;html=1;" edge="1" parent="1" source="AcyV1eYRO90Xr-etmsFE-12" target="AcyV1eYRO90Xr-etmsFE-21">
          <mxGeometry relative="1" as="geometry" />
        </mxCell>
        <mxCell id="AcyV1eYRO90Xr-etmsFE-12" value="&lt;div style=&quot;&quot;&gt;&lt;span style=&quot;font-size: 10px; background-color: transparent; color: light-dark(rgb(0, 0, 0), rgb(255, 255, 255));&quot;&gt;Indicators- Continuous control Monitoring&amp;nbsp;&lt;/span&gt;&lt;/div&gt;" style="shape=parallelogram;perimeter=parallelogramPerimeter;whiteSpace=wrap;html=1;fixedSize=1;align=center;" vertex="1" parent="1">
          <mxGeometry x="780" y="368.75" width="170" height="51.25" as="geometry" />
        </mxCell>
        <mxCell id="AcyV1eYRO90Xr-etmsFE-19" style="edgeStyle=orthogonalEdgeStyle;rounded=0;orthogonalLoop=1;jettySize=auto;html=1;entryX=0;entryY=0.75;entryDx=0;entryDy=0;" edge="1" parent="1" source="AcyV1eYRO90Xr-etmsFE-18" target="_-1G271mIU7XEoSfgBSJ-1">
          <mxGeometry relative="1" as="geometry" />
        </mxCell>
        <mxCell id="AcyV1eYRO90Xr-etmsFE-18" value="UCF" style="rounded=1;whiteSpace=wrap;html=1;labelBackgroundColor=none;textShadow=0;fontColor=#0000AD;" vertex="1" parent="1">
          <mxGeometry x="-170" y="90" width="70" height="30" as="geometry" />
        </mxCell>
        <mxCell id="AcyV1eYRO90Xr-etmsFE-20" value="&lt;span style=&quot;color: rgb(71, 71, 71); font-family: Arial, sans-serif; text-align: left; background-color: rgb(255, 255, 255);&quot;&gt;&lt;font style=&quot;font-size: 9px;&quot;&gt;Unified Compliance Framework&lt;/font&gt;&lt;/span&gt;" style="ellipse;shape=cloud;whiteSpace=wrap;html=1;strokeColor=#FFFFFF;" vertex="1" parent="1">
          <mxGeometry x="-243" y="85" width="85" height="40" as="geometry" />
        </mxCell>
        <mxCell id="AcyV1eYRO90Xr-etmsFE-21" value="&lt;b&gt;Control -&amp;nbsp;&lt;/b&gt;&lt;div&gt;Compliant/&lt;div&gt;Non-Conpliant&lt;/div&gt;&lt;/div&gt;" style="shape=ext;double=1;rounded=1;whiteSpace=wrap;html=1;" vertex="1" parent="1">
          <mxGeometry x="980" y="360" width="100" height="60" as="geometry" />
        </mxCell>
        <mxCell id="AcyV1eYRO90Xr-etmsFE-22" value="Issue" style="whiteSpace=wrap;html=1;fontSize=11;fontStyle=1;startSize=20;direction=south;" vertex="1" parent="1">
          <mxGeometry x="1180" y="380" width="50" height="25" as="geometry" />
        </mxCell>
        <mxCell id="AcyV1eYRO90Xr-etmsFE-25" value="" style="edgeStyle=orthogonalEdgeStyle;rounded=0;orthogonalLoop=1;jettySize=auto;html=1;" edge="1" parent="1" source="AcyV1eYRO90Xr-etmsFE-23" target="AcyV1eYRO90Xr-etmsFE-22">
          <mxGeometry relative="1" as="geometry" />
        </mxCell>
        <mxCell id="AcyV1eYRO90Xr-etmsFE-23" value="&lt;span style=&quot;font-weight: 400;&quot;&gt;&lt;font style=&quot;font-size: 11px;&quot;&gt;Non-Conpliant&lt;/font&gt;&lt;/span&gt;" style="whiteSpace=wrap;html=1;fontSize=11;fontStyle=1;startSize=20;direction=south;" vertex="1" parent="1">
          <mxGeometry x="1080" y="375" width="60" height="35" as="geometry" />
        </mxCell>
        <mxCell id="AcyV1eYRO90Xr-etmsFE-26" value="" style="shape=cross;whiteSpace=wrap;html=1;size=0;" vertex="1" parent="1">
          <mxGeometry x="130" y="600" width="30" height="20" as="geometry" />
        </mxCell>
        <mxCell id="AcyV1eYRO90Xr-etmsFE-28" value="Risk Appitite" style="whiteSpace=wrap;html=1;fontSize=11;fillColor=#FFF2CC;strokeColor=#C73500;fontColor=#000000;labelBackgroundColor=none;gradientColor=none;strokeWidth=2;" vertex="1" parent="1">
          <mxGeometry x="160" y="660" width="110" height="30" as="geometry" />
        </mxCell>
        <mxCell id="8ZBx37bHo5j3qZ4o35O3-2" value="&lt;b&gt;&lt;font style=&quot;font-size: 13px;&quot;&gt;Risk Framework&lt;/font&gt;&lt;/b&gt;" style="rounded=1;whiteSpace=wrap;html=1;" vertex="1" parent="1">
          <mxGeometry x="-120" y="400" width="120" height="40" as="geometry" />
        </mxCell>
        <mxCell id="8ZBx37bHo5j3qZ4o35O3-3" value="&lt;b&gt;Risk Architecture&lt;/b&gt;" style="rounded=0;whiteSpace=wrap;html=1;fillColor=#99CCFF;" vertex="1" parent="1">
          <mxGeometry x="-300" y="350" width="580" height="25" as="geometry" />
        </mxCell>
        <mxCell id="ftNwT-7pUEZWG3aLOZoX-4" value="" style="edgeStyle=orthogonalEdgeStyle;rounded=0;orthogonalLoop=1;jettySize=auto;html=1;" edge="1" parent="1" source="ftNwT-7pUEZWG3aLOZoX-2" target="ftNwT-7pUEZWG3aLOZoX-3">
          <mxGeometry relative="1" as="geometry" />
        </mxCell>
        <mxCell id="ftNwT-7pUEZWG3aLOZoX-2" value="Policy&lt;div&gt;75%&lt;/div&gt;" style="rounded=1;whiteSpace=wrap;html=1;" vertex="1" parent="1">
          <mxGeometry x="1460" y="227.5" width="120" height="60" as="geometry" />
        </mxCell>
        <mxCell id="ftNwT-7pUEZWG3aLOZoX-6" value="" style="edgeStyle=orthogonalEdgeStyle;rounded=0;orthogonalLoop=1;jettySize=auto;html=1;" edge="1" parent="1" source="ftNwT-7pUEZWG3aLOZoX-3" target="ftNwT-7pUEZWG3aLOZoX-5">
          <mxGeometry relative="1" as="geometry" />
        </mxCell>
        <mxCell id="ftNwT-7pUEZWG3aLOZoX-8" value="" style="edgeStyle=orthogonalEdgeStyle;rounded=0;orthogonalLoop=1;jettySize=auto;html=1;" edge="1" parent="1" target="ftNwT-7pUEZWG3aLOZoX-7">
          <mxGeometry relative="1" as="geometry">
            <mxPoint x="1520" y="372.5" as="sourcePoint" />
            <Array as="points">
              <mxPoint x="1520" y="392.5" />
              <mxPoint x="1645" y="392.5" />
            </Array>
          </mxGeometry>
        </mxCell>
        <mxCell id="ftNwT-7pUEZWG3aLOZoX-3" value="Control Objective&lt;div&gt;75%&lt;/div&gt;" style="rounded=1;whiteSpace=wrap;html=1;" vertex="1" parent="1">
          <mxGeometry x="1460" y="312.5" width="120" height="60" as="geometry" />
        </mxCell>
        <mxCell id="ftNwT-7pUEZWG3aLOZoX-10" value="" style="edgeStyle=orthogonalEdgeStyle;rounded=0;orthogonalLoop=1;jettySize=auto;html=1;" edge="1" parent="1" source="ftNwT-7pUEZWG3aLOZoX-5">
          <mxGeometry relative="1" as="geometry">
            <mxPoint x="1360" y="517.5" as="targetPoint" />
          </mxGeometry>
        </mxCell>
        <mxCell id="ftNwT-7pUEZWG3aLOZoX-12" value="" style="edgeStyle=orthogonalEdgeStyle;rounded=0;orthogonalLoop=1;jettySize=auto;html=1;" edge="1" parent="1" source="ftNwT-7pUEZWG3aLOZoX-5" target="ftNwT-7pUEZWG3aLOZoX-11">
          <mxGeometry relative="1" as="geometry" />
        </mxCell>
        <mxCell id="ftNwT-7pUEZWG3aLOZoX-5" value="Control Objective&lt;div&gt;100%&lt;/div&gt;" style="rounded=1;whiteSpace=wrap;html=1;" vertex="1" parent="1">
          <mxGeometry x="1360" y="412.5" width="120" height="60" as="geometry" />
        </mxCell>
        <mxCell id="ftNwT-7pUEZWG3aLOZoX-15" value="" style="edgeStyle=orthogonalEdgeStyle;rounded=0;orthogonalLoop=1;jettySize=auto;html=1;" edge="1" parent="1" source="ftNwT-7pUEZWG3aLOZoX-7" target="ftNwT-7pUEZWG3aLOZoX-14">
          <mxGeometry relative="1" as="geometry" />
        </mxCell>
        <mxCell id="ftNwT-7pUEZWG3aLOZoX-16" value="" style="edgeStyle=orthogonalEdgeStyle;rounded=0;orthogonalLoop=1;jettySize=auto;html=1;" edge="1" parent="1" source="ftNwT-7pUEZWG3aLOZoX-7" target="ftNwT-7pUEZWG3aLOZoX-14">
          <mxGeometry relative="1" as="geometry" />
        </mxCell>
        <mxCell id="ftNwT-7pUEZWG3aLOZoX-17" value="" style="edgeStyle=orthogonalEdgeStyle;rounded=0;orthogonalLoop=1;jettySize=auto;html=1;" edge="1" parent="1" source="ftNwT-7pUEZWG3aLOZoX-7" target="ftNwT-7pUEZWG3aLOZoX-14">
          <mxGeometry relative="1" as="geometry" />
        </mxCell>
        <mxCell id="ftNwT-7pUEZWG3aLOZoX-18" value="" style="edgeStyle=orthogonalEdgeStyle;rounded=0;orthogonalLoop=1;jettySize=auto;html=1;" edge="1" parent="1" source="ftNwT-7pUEZWG3aLOZoX-7" target="ftNwT-7pUEZWG3aLOZoX-14">
          <mxGeometry relative="1" as="geometry" />
        </mxCell>
        <mxCell id="ftNwT-7pUEZWG3aLOZoX-19" value="" style="edgeStyle=orthogonalEdgeStyle;rounded=0;orthogonalLoop=1;jettySize=auto;html=1;" edge="1" parent="1" source="ftNwT-7pUEZWG3aLOZoX-7" target="ftNwT-7pUEZWG3aLOZoX-14">
          <mxGeometry relative="1" as="geometry" />
        </mxCell>
        <mxCell id="ftNwT-7pUEZWG3aLOZoX-20" value="" style="edgeStyle=orthogonalEdgeStyle;rounded=0;orthogonalLoop=1;jettySize=auto;html=1;" edge="1" parent="1" source="ftNwT-7pUEZWG3aLOZoX-7" target="ftNwT-7pUEZWG3aLOZoX-14">
          <mxGeometry relative="1" as="geometry" />
        </mxCell>
        <mxCell id="ftNwT-7pUEZWG3aLOZoX-22" style="edgeStyle=orthogonalEdgeStyle;rounded=0;orthogonalLoop=1;jettySize=auto;html=1;entryX=0.5;entryY=0;entryDx=0;entryDy=0;" edge="1" parent="1" source="ftNwT-7pUEZWG3aLOZoX-7" target="ftNwT-7pUEZWG3aLOZoX-21">
          <mxGeometry relative="1" as="geometry" />
        </mxCell>
        <mxCell id="ftNwT-7pUEZWG3aLOZoX-7" value="Control Objective&lt;div&gt;50%&lt;/div&gt;" style="rounded=1;whiteSpace=wrap;html=1;" vertex="1" parent="1">
          <mxGeometry x="1585" y="412.5" width="120" height="60" as="geometry" />
        </mxCell>
        <mxCell id="ftNwT-7pUEZWG3aLOZoX-9" value="Control&lt;div&gt;Complaint&lt;/div&gt;" style="rounded=1;whiteSpace=wrap;html=1;fillColor=#CCFF99;" vertex="1" parent="1">
          <mxGeometry x="1310" y="520" width="100" height="35" as="geometry" />
        </mxCell>
        <mxCell id="ftNwT-7pUEZWG3aLOZoX-11" value="Control&lt;div&gt;Complaint&lt;/div&gt;" style="rounded=1;whiteSpace=wrap;html=1;fillColor=#CCFF99;" vertex="1" parent="1">
          <mxGeometry x="1420" y="517.5" width="80" height="35" as="geometry" />
        </mxCell>
        <mxCell id="ftNwT-7pUEZWG3aLOZoX-14" value="Control&lt;div&gt;Complaint&lt;/div&gt;" style="rounded=1;whiteSpace=wrap;html=1;fillColor=#CCFF99;" vertex="1" parent="1">
          <mxGeometry x="1540" y="512.5" width="100" height="40" as="geometry" />
        </mxCell>
        <mxCell id="ftNwT-7pUEZWG3aLOZoX-24" value="" style="edgeStyle=orthogonalEdgeStyle;rounded=0;orthogonalLoop=1;jettySize=auto;html=1;" edge="1" parent="1" source="ftNwT-7pUEZWG3aLOZoX-21" target="ftNwT-7pUEZWG3aLOZoX-23">
          <mxGeometry relative="1" as="geometry" />
        </mxCell>
        <mxCell id="ftNwT-7pUEZWG3aLOZoX-21" value="Control&lt;div&gt;NON-Complaint&lt;/div&gt;" style="rounded=1;whiteSpace=wrap;html=1;fillColor=#E65266;" vertex="1" parent="1">
          <mxGeometry x="1660" y="512.5" width="100" height="40" as="geometry" />
        </mxCell>
        <mxCell id="ftNwT-7pUEZWG3aLOZoX-23" value="Issue" style="whiteSpace=wrap;html=1;fillColor=#E65266;rounded=1;" vertex="1" parent="1">
          <mxGeometry x="1660" y="571.25" width="120" height="32.5" as="geometry" />
        </mxCell>
        <UserObject label="&lt;font&gt;Risk Framework =Physical and Environmental Threats&lt;/font&gt;" id="K7W3UvvrrvjuH6ydgzVj-2">
          <mxCell style="text;whiteSpace=wrap;html=1;fontColor=#009C00;" vertex="1" parent="1">
            <mxGeometry x="-690" y="422.5" width="250" height="30" as="geometry" />
          </mxCell>
        </UserObject>
      </root>
    </mxGraphModel>
  </diagram>
</mxfile>
